
<!-- 

<svg xmlns="http://www.w3.org/2000/svg" version="1.1" xmlns:xlink="http://www.w3.org/1999/xlink" xmlns:svgjs="http://svgjs.dev/svgjs" width="1920" height="1000" preserveAspectRatio="none" viewBox="0 0 1920 1000">
    <g mask="url(&quot;#SvgjsMask1064&quot;)" fill="none">
        <rect width="1920" height="1000" x="0" y="0" fill="rgba(9, 58, 96, 1)"></rect>
        <path d="M0,629.547C112.066,599.945,187.338,502.507,294.407,458.106C434.837,399.871,624.922,446.544,722.472,329.942C819.246,214.268,822.027,30.921,770.32,-110.755C720.904,-246.154,567.842,-303.723,457.404,-396.343C366.21,-472.824,290.578,-567.749,178.306,-607.256C62.423,-648.034,-68.929,-668.362,-182.493,-621.513C-292.659,-576.066,-328.774,-441.383,-417.266,-361.563C-523.284,-265.934,-734.171,-249.773,-751.708,-108.079C-769.373,34.649,-548.397,92.345,-489.695,223.636C-430.203,356.695,-527.015,552.427,-414.8,645.442C-306.068,735.57,-136.546,665.615,0,629.547" fill="#06263e"></path>
        <path d="M1920 1926.8890000000001C2095.286 1906.262 2141.692 1665.3139999999999 2269.0299999999997 1543.1019999999999 2365.013 1450.983 2513.985 1417.382 2574.384 1298.847 2635.625 1178.658 2605.688 1037.402 2595.2309999999998 902.9159999999999 2584.057 759.203 2587.966 609.702 2511.308 487.629 2428.527 355.80499999999995 2301.437 252.71400000000006 2154.558 201.16899999999998 2003.599 148.192 1840.271 161.63300000000004 1684.339 197.414 1520.9270000000001 234.91200000000003 1358.754 292.394 1240.231 410.976 1117.096 534.172 1028.469 696.075 1012.558 869.529 996.998 1039.156 1060.53 1207.439 1154.112 1349.769 1239.574 1479.749 1389.6219999999998 1538.353 1513.858 1631.969 1650.24 1734.737 1750.403 1946.847 1920 1926.8890000000001" fill="#0c4e82"></path>
    </g>
    <defs>
        <mask id="SvgjsMask1064">
            <rect width="1920" height="1000" fill="#ffffff"></rect>
        </mask>
    </defs>
</svg> -->




<svg xmlns="http://www.w3.org/2000/svg" version="1.1" xmlns:xlink="http://www.w3.org/1999/xlink" xmlns:svgjs="http://svgjs.dev/svgjs" width="1920" height="1000" preserveAspectRatio="none" viewBox="0 0 1920 1000">
    <g mask="url(&quot;#SvgjsMask1064&quot;)" fill="none">
        <rect width="1920" height="1000" x="0" y="0" fill="rgba(9, 58, 96, 1)"></rect>
        <path d="M0,629.547C112.066,599.945,187.338,502.507,294.407,458.106C434.837,399.871,624.922,446.544,722.472,329.942C819.246,214.268,822.027,30.921,770.32,-110.755C720.904,-246.154,567.842,-303.723,457.404,-396.343C366.21,-472.824,290.578,-567.749,178.306,-607.256C62.423,-648.034,-68.929,-668.362,-182.493,-621.513C-292.659,-576.066,-328.774,-441.383,-417.266,-361.563C-523.284,-265.934,-734.171,-249.773,-751.708,-108.079C-769.373,34.649,-548.397,92.345,-489.695,223.636C-430.203,356.695,-527.015,552.427,-414.8,645.442C-306.068,735.57,-136.546,665.615,0,629.547" fill="#06263e" class="triangle-float1"></path>
        <path d="M1920 1926.8890000000001C2095.286 1906.262 2141.692 1665.3139999999999 2269.0299999999997 1543.1019999999999 2365.013 1450.983 2513.985 1417.382 2574.384 1298.847 2635.625 1178.658 2605.688 1037.402 2595.2309999999998 902.9159999999999 2584.057 759.203 2587.966 609.702 2511.308 487.629 2428.527 355.80499999999995 2301.437 252.71400000000006 2154.558 201.16899999999998 2003.599 148.192 1840.271 161.63300000000004 1684.339 197.414 1520.9270000000001 234.91200000000003 1358.754 292.394 1240.231 410.976 1117.096 534.172 1028.469 696.075 1012.558 869.529 996.998 1039.156 1060.53 1207.439 1154.112 1349.769 1239.574 1479.749 1389.6219999999998 1538.353 1513.858 1631.969 1650.24 1734.737 1750.403 1946.847 1920 1926.8890000000001" fill="#0c4e82" class="triangle-float2"></path>
    </g>
    <defs>
        <mask id="SvgjsMask1064">
            <rect width="1920" height="1000" fill="#ffffff"></rect>
        </mask>
        <style>
        @keyframes float1 {
                    0%{transform: translate(0, 0)}
                    50%{transform: translate(-30px, 30px)}
                    100%{transform: translate(0, 0)}
                }

                .triangle-float1 {
                    animation: float1 7s infinite;
                }

                @keyframes float2 {
                    0%{transform: translate(0, 0)}
                    50%{transform: translate(-20px, 35px)}
                    100%{transform: translate(0, 0)}
                }

                .triangle-float2 {
                    animation: float2 6s infinite;
                }
            </style>
    </defs>
</svg>