<!-- <svg xmlns="http://www.w3.org/2000/svg" version="1.1" xmlns:xlink="http://www.w3.org/1999/xlink" xmlns:svgjs="http://svgjs.dev/svgjs" width="1920" height="2056" preserveAspectRatio="none" viewBox="0 0 1920 2056">
    <g mask="url(&quot;#SvgjsMask1047&quot;)" fill="none">
        <rect width="1920" height="2056" x="0" y="0" fill="rgba(244, 244, 244, 1)"></rect>
        <path d="M0,926.086C175.301,934.261,360.086,879.613,488.251,759.733C609.773,646.068,589.385,451.902,665.275,303.821C746.386,145.553,943.333,41.577,947.414,-136.218C951.533,-315.64,818.086,-472.946,685.891,-594.328C561.935,-708.144,396.508,-753.964,232.691,-792.474C76.571,-829.175,-79.485,-833.879,-238.304,-811.588C-420.2,-786.058,-629.503,-788.357,-754.636,-653.896C-880.202,-518.97,-853.692,-308.916,-876.335,-125.998C-898.51,53.138,-965.713,242.688,-885.646,404.461C-806.064,565.254,-614.426,624.471,-459.837,715.52C-311.572,802.845,-171.883,918.07,0,926.086" fill="#0C4E82" class="triangle-float1"></path>
        <path d="M1920 2604.634C2026.774 2586.6549999999997 2141.38 2600.739 2231.888 2541.307 2322.027 2482.117 2351.888 2370.042 2412.784 2281.047 2488.7799999999997 2169.986 2645.632 2087.398 2634.237 1953.308 2622.9790000000003 1820.8220000000001 2453.318 1769.577 2361.174 1673.72 2275.029 1584.103 2229.012 1444.7849999999999 2110.219 1408.172 1991.239 1371.501 1861.275 1425.274 1752.685 1486.1770000000001 1657.407 1539.614 1625.088 1657.903 1540.88 1727.49 1431.791 1817.637 1237.8339999999998 1817.829 1190.121 1951.059 1144.239 2079.177 1266.868 2204.706 1326.1 2327.225 1383.966 2446.92 1411.962 2602.825 1532.4180000000001 2659.09 1653.065 2715.444 1788.689 2626.745 1920 2604.634" fill="#E6BE8C" class="triangle-float2"></path>
    </g>
    <defs>
        <mask id="SvgjsMask1047">
            <rect width="1920" height="2056" fill="#ffffff"></rect>
        </mask>
        <style>
            @keyframes float1 {
                    0%{transform: translate(0, 0)}
                    50%{transform: translate(-60px, 0)}
                    100%{transform: translate(0, 0)}
                }

                .triangle-float1 {
                    animation: float1 5s infinite;
                }

                @keyframes float2 {
                    0%{transform: translate(0, 0)}
                    50%{transform: translate(-5px, -5px)}
                    100%{transform: translate(0, 0)}
                }

                .triangle-float2 {
                    animation: float2 4s infinite;
                }
        </style>
    </defs>
</svg> -->

<svg xmlns="http://www.w3.org/2000/svg" version="1.1" xmlns:xlink="http://www.w3.org/1999/xlink" xmlns:svgjs="http://svgjs.dev/svgjs" width="1920" height="2056" preserveAspectRatio="none" viewBox="0 0 1920 2056">
    <g mask="url(&quot;#SvgjsMask1077&quot;)" fill="none">
        <rect width="1920" height="2056" x="0" y="0" fill="#F5F5F5"></rect>
        <path d="M0,951.427C175.384,912.351,239.171,697.869,367.985,572.596C465.782,477.488,595.653,421.075,665.711,304.02C740.949,178.31,809.441,31.201,777.602,-111.802C746.197,-252.853,586.235,-317.47,501.308,-434.385C405.274,-566.592,404.316,-796.985,247.221,-841.956C89.821,-887.014,-38.33,-703.159,-185.257,-630.927C-302.914,-573.084,-424.951,-537.478,-530.45,-459.638C-661.066,-363.266,-857.175,-286.944,-870.696,-125.187C-884.412,38.902,-656.117,118.675,-591.448,270.105C-524.106,427.795,-603.381,634.489,-490.976,763.974C-373.763,898.998,-174.524,990.311,0,951.427" fill="#E6BE8C" class="triangle-float1"></path>
        <path d="M1920 3080.85C2108.117 3103.4139999999998 2260.465 2936.022 2416.318 2828.286 2567.052 2724.089 2759.501 2639.043 2812.765 2463.712 2865.505 2290.103 2710.917 2125.59 2684.313 1946.108 2657.878 1767.769 2746.451 1573.742 2657.593 1416.8719999999998 2564.076 1251.777 2389.567 1124.7939999999999 2202.186 1094.961 2020.169 1065.982 1846.557 1170.147 1686.959 1262.335 1554.798 1338.674 1468.695 1463.0059999999999 1367.388 1577.159 1264.6950000000002 1692.874 1111.109 1783.397 1088.683 1936.475 1066.25 2089.601 1181.216 2223.476 1252.585 2360.798 1320.258 2491.009 1394.966 2610.118 1494.723 2717.743 1624.056 2857.276 1731.1 3058.192 1920 3080.85" fill="#f3e0c9" class="triangle-float2"></path>
    </g>
    <defs>
        <mask id="SvgjsMask1077">
            <rect width="1920" height="2056" fill="#ffffff"></rect>
        </mask>
        <style>
            @keyframes float1 {
                    0%{transform: translate(0, 0)}
                    50%{transform: translate(-60px, -50px)}
                    100%{transform: translate(0, 0)}
                }

                .triangle-float1 {
                    animation: float1 10s infinite;
                }

                @keyframes float2 {
                    0%{transform: translate(0, 0)}
                    50%{transform: translate(-34px, -55px)}
                    100%{transform: translate(0, 0)}
                }

                .triangle-float2 {
                    animation: float2 8s infinite;
                }
        </style>
    </defs>
</svg>
