<!-- <svg xmlns="http://www.w3.org/2000/svg" version="1.1" xmlns:xlink="http://www.w3.org/1999/xlink" xmlns:svgjs="http://svgjs.dev/svgjs" width="1920" height="1012" preserveAspectRatio="none" viewBox="0 0 1920 1012">
    <g mask="url(&quot;#SvgjsMask1111&quot;)" fill="none">
        <rect width="1920" height="1012" x="0" y="0" fill="rgba(12, 76, 125, 1)"></rect>
        <path d="M1359.979,596.711C1417.531,595.792,1469.993,565.933,1499.818,516.704C1530.827,465.522,1540.207,401.011,1509.755,349.495C1479.748,298.732,1418.944,280.835,1359.979,280.135C1299.482,279.416,1235.524,294.277,1203.911,345.862C1171.125,399.361,1179.042,468.019,1212.189,521.295C1243.504,571.627,1300.709,597.657,1359.979,596.711" fill="rgba(9, 58, 96, 1)" class="triangle-float2"></path>
        <path d="M682.934,823.628C738.795,820.423,772.909,767.005,797.329,716.662C818.125,673.792,821.522,625.569,799.507,583.312C775.572,537.369,734.731,496.253,682.934,497.081C632.114,497.893,598.673,543.285,572.64,586.938C545.694,632.122,521.071,683.552,543.292,731.238C568.559,785.46,623.212,827.055,682.934,823.628" fill="rgba(9, 58, 96, 1)" class="triangle-float1"></path>
        <path d="M198.149,1238.59C265.278,1234.547,329.679,1207.909,364.404,1150.317C400.27,1090.831,400.573,1017.586,368.573,955.934C333.696,888.74,273.697,834.899,198.149,830.004C113.932,824.547,27.955,858.63,-15.368,931.055C-59.709,1005.181,-56.089,1101.72,-6.828,1172.672C37.043,1235.861,121.363,1243.214,198.149,1238.59" fill="rgba(9, 58, 96, 1)" class="triangle-float3"></path>
        <path d="M1024.055,257.419C1069.794,256.439,1099.606,215.021,1122.313,175.305C1144.793,135.987,1164.072,90.013,1142.553,50.161C1120.245,8.848,1070.998,-7.546,1024.055,-6.665C978.778,-5.815,935.383,15.092,913.019,54.469C890.908,93.4,896.734,140.4,918.223,179.678C940.741,220.836,977.151,258.424,1024.055,257.419" fill="rgba(9, 58, 96, 1)" class="triangle-float2"></path>
        <path d="M548.412,337.062C623.451,334.18,690.918,295.931,730.543,232.142C772.704,164.27,791.531,78.884,751.88,9.516C711.992,-60.266,628.777,-87.924,548.412,-86.487C470.81,-85.099,398.246,-49.278,357.171,16.576C313.463,86.65,298.004,176.207,340.324,247.128C381.825,316.676,467.483,340.17,548.412,337.062" fill="rgba(9, 58, 96, 1)" class="triangle-float2"></path>
        <path d="M912.583,919.941C944.521,919.595,979.745,917.979,997.265,891.273C1016.121,862.531,1012.804,824.184,994.486,795.096C977.273,767.763,944.882,756.481,912.583,756.804C880.928,757.12,850.623,770.099,833.467,796.704C814.718,825.779,805.978,864.027,824.668,893.14C842.407,920.772,879.749,920.296,912.583,919.941" fill="rgba(9, 58, 96, 1)" class="triangle-float1"></path>
        <path d="M1574.055,858.41C1606.285,859.808,1639.006,847.974,1656.047,820.582C1673.99,791.74,1673.86,754.844,1656.736,725.508C1639.749,696.405,1607.74,681.059,1574.055,680.113C1538.436,679.112,1499.528,689.101,1482.916,720.625C1466.995,750.838,1484.68,785.482,1503.521,813.966C1519.953,838.808,1544.298,857.119,1574.055,858.41" fill="rgba(9, 58, 96, 1)" class="triangle-float3"></path>
    </g>
    <defs>
        <mask id="SvgjsMask1111">
            <rect width="1920" height="1012" fill="#ffffff"></rect>
        </mask>
        <style>
            @keyframes float1 {
                    0%{transform: translate(0, 0)}
                    50%{transform: translate(-20px, 0)}
                    100%{transform: translate(0, 0)}
                }

                .triangle-float1 {
                    animation: float1 7s infinite;
                }

                @keyframes float2 {
                    0%{transform: translate(0, 0)}
                    50%{transform: translate(-10px, -10px)}
                    100%{transform: translate(0, 0)}
                }

                .triangle-float2 {
                    animation: float2 6s infinite;
                }

                @keyframes float3 {
                    0%{transform: translate(0, 0)}
                    50%{transform: translate(0, -20px)}
                    100%{transform: translate(0, 0)}
                }

                .triangle-float3 {
                    animation: float3 8s infinite;
                }
        </style>
    </defs>
</svg> -->


<!-- <svg xmlns="http://www.w3.org/2000/svg" version="1.1" xmlns:xlink="http://www.w3.org/1999/xlink" xmlns:svgjs="http://svgjs.dev/svgjs" width="1920" height="1280" preserveAspectRatio="none" viewBox="0 0 1920 1280">
    <g mask="url(&quot;#SvgjsMask1030&quot;)" fill="none">
        <rect width="1920" height="1280" x="0" y="0" fill="rgba(12, 76, 125, 1)"></rect>
        <path d="M320 567.74C153.03 549.08 138.95 484.05 0 376.47C-21.05 360.18 0 348.24 0 320C0 160 -80 80 0 0C80 -80 160 0 320 0C480 0 480 0 640 0C800 0 800 0 960 0C1120 0 1120 0 1280 0C1440 0 1440 0 1600 0C1760 0 1840 -80 1920 0C2000 80 1920 160 1920 320C1920 480 1920 480 1920 640C1920 800 1920 800 1920 960C1920 1113.85 1924.83 1115.58 1920 1267.69C1919.75 1275.58 1917.68 1279.7 1909.84 1280C1757.68 1285.85 1754.92 1280 1600 1280C1452.12 1280 1355.09 1355.62 1304.24 1280C1247.5 1195.62 1392.27 1113.19 1384.83 960C1380.15 863.78 1330.26 781.18 1280 781.18C1231.07 781.18 1210.2 863.79 1186.46 960C1148.66 1113.2 1227.13 1180.79 1156.92 1280C1113.9 1340.79 1058.46 1280 960 1280C800 1280 800 1280 640 1280C480 1280 480 1280 320 1280C186.66 1280 107.37 1352.57 53.33 1280C-11.78 1192.57 17.18 1096.99 81.7 960C150.51 813.91 199.85 713.85 320 713.85C442.08 713.85 448.62 832.19 566.15 960C608.62 1006.18 599.24 1061.82 640 1061.82C686.32 1061.82 691.57 1012.25 740.3 960C851.57 840.69 837.23 822.16 960 718.69C1027.08 662.16 1120 688.35 1120 640C1120 584.14 1052.93 547.44 960 510.27C812.93 451.44 796.25 433.97 640 448C476.25 462.7 473.03 584.84 320 567.74" stroke="rgba(219, 161, 89, 1)" stroke-width="2"></path>
        <path d="M102.03 320C27.53 232.69 35.16 216.93 0 106.67C-15.86 56.93 -40 13.33 0 0C120 -40 160 0 320 0C480 0 480 0 640 0C730.91 0 821.82 -38.9 821.82 0C821.82 56.34 723.99 89.74 640 190.48C590.58 249.74 611.31 268.75 555 320C451.31 414.37 436.06 481.72 320 481.72C209.58 481.72 187.53 420.21 102.03 320" stroke="rgba(219, 161, 89, 1)" stroke-width="2"></path>
        <path d="M978.82 320C962.24 174.58 1084.41 136.98 1213.33 0C1235 -23.02 1246.66 0 1280 0C1316.36 0 1318.63 -11.15 1352.73 0C1478.63 41.16 1472.11 65.91 1600 104.62C1755.74 151.76 1809.92 97.62 1920 171.71C1969.92 205.31 1920 245.86 1920 320C1920 480 1920 480 1920 640C1920 800 1920 800 1920 960C1920 1036.92 1948.57 1047.19 1920 1113.85C1880 1207.19 1869.4 1235.07 1782.86 1280C1709.4 1318.14 1691.43 1280 1600 1280C1512.72 1280 1438.69 1334.87 1425.45 1280C1400.07 1174.87 1538.99 1114.14 1522.76 960C1505.29 794.14 1453.96 788.22 1358.05 640C1332.58 600.64 1316.49 615.62 1280 584.83C1126.88 455.62 995.58 467 978.82 320" stroke="rgba(219, 161, 89, 1)" stroke-width="2"></path>
        <path d="M166.81 960C198.52 862.52 242.76 801.76 320 801.76C398.48 801.76 406.53 874.56 478.24 960C566.53 1065.19 542.68 1089.99 640 1183.03C710.04 1249.99 812.97 1254.1 812.97 1280C812.97 1302.59 726.49 1280 640 1280C480 1280 480 1280 320 1280C242.22 1280 189.49 1332.34 164.44 1280C112.9 1172.34 120.74 1101.64 166.81 960" stroke="rgba(219, 161, 89, 1)" stroke-width="2"></path>
        <path d="M859.7 960C859.7 899.31 909.43 849.84 960 849.84C1011.27 849.84 1063.38 899.09 1063.38 960C1063.38 1042.59 1011.11 1136.84 960 1136.84C909.27 1136.84 859.7 1042.81 859.7 960" stroke="rgba(219, 161, 89, 1)" stroke-width="2"></path>
        <path d="M217.97 320C173.12 178.27 158.09 115.08 194.78 0C209.1 -44.92 257.39 0 320 0C480 0 614.96 -72.86 640 0C669.96 87.14 548.62 173.32 430 320C388.62 371.17 374.33 395.7 320 395.7C268.31 395.7 235.73 376.12 217.97 320" stroke="rgba(219, 161, 89, 1)" stroke-width="2"></path>
        <path d="M1135.69 320C1135.69 239.81 1187.54 161.09 1280 148.84C1419.7 130.32 1439.37 205.59 1600 258.46C1699.37 291.17 1765.56 244.72 1800 320C1852.83 435.49 1835.24 508.62 1774.55 640C1735.24 725.09 1669.7 752.94 1600 752.94C1559.01 752.94 1596 680.96 1553.17 640C1436 527.94 1412.58 548.52 1280 446.9C1203.84 388.52 1135.69 388.84 1135.69 320" stroke="rgba(219, 161, 89, 1)" stroke-width="2"></path>
        <path d="M251.91 960C257.1 914.38 285.67 889.67 320 889.67C354.88 889.67 366.75 916.86 390.33 960C473.42 1112.02 555.19 1180.54 533.33 1280C520.02 1340.54 426.66 1280 320 1280C297.78 1280 279.7 1299.46 275.56 1280C245.66 1139.46 234.88 1109.54 251.91 960" stroke="rgba(219, 161, 89, 1)" stroke-width="2"></path>
        <path d="M1546.67 1280C1546.67 1219.22 1572.77 1120 1600 1120C1627.37 1120 1655.87 1219.83 1655.87 1280C1655.87 1299.83 1627.93 1280 1600 1280C1573.34 1280 1546.67 1299.22 1546.67 1280" stroke="rgba(219, 161, 89, 1)" stroke-width="2"></path>
    </g>
    <defs>
        <mask id="SvgjsMask1030">
            <rect width="1920" height="1280" fill="#ffffff"></rect>
        </mask>
    </defs>
</svg> -->

<!-- <svg xmlns="http://www.w3.org/2000/svg" version="1.1" xmlns:xlink="http://www.w3.org/1999/xlink" xmlns:svgjs="http://svgjs.dev/svgjs" width="1920" height="1280" preserveAspectRatio="none" viewBox="0 0 1920 1280">
    <g mask="url(&quot;#SvgjsMask1050&quot;)" fill="none">
        <rect width="1920" height="1280" x="0" y="0" fill="rgba(12, 76, 125, 1)"></rect>
        <path d="M0 123.87C23.06 51.81 34.43 26.31 102.4 0C194.43 -35.62 211.2 0 320 0C480 0 480 0 640 0C740.87 0 749.25 -25.36 841.74 0C909.25 18.51 903.56 87.74 960 87.74C1008.79 87.74 994.85 15.73 1052.2 0C1154.85 -28.14 1166.1 0 1280 0C1380.3 0 1394.99 -33.97 1480.6 0C1554.99 29.52 1541.44 126.98 1600 126.98C1656.69 126.98 1639.62 28.37 1711.11 0C1799.62 -35.12 1878.75 -63.19 1920 0C1983.19 96.81 1920 160 1920 320C1920 480 1920 480 1920 640C1920 800 1920 800 1920 960C1920 1120 1969.03 1169.03 1920 1280C1898.33 1329.03 1831.29 1317.19 1778.6 1280C1671.29 1204.25 1695.47 1161.21 1600 1054.12C1552.84 1001.21 1528.87 1019.99 1493.33 960C1406.2 812.93 1386.66 806.78 1354.67 640C1325.28 486.78 1397.51 465.82 1370.57 320C1360.17 263.71 1323.98 235.79 1280 235.79C1238.69 235.79 1227.85 269.74 1200 320C1115.85 471.84 1080.17 473.63 1056 640C1033.68 793.63 1132.04 809.14 1107.03 960C1084.04 1098.67 1072.19 1165.69 960 1219.05C838.67 1276.75 799.63 1179.28 640 1182.12C479.63 1184.97 471.06 1189.8 320 1230.42C289.06 1238.74 306.99 1275.2 276 1280C146.99 1299.99 63.91 1354.09 0 1280C-74.09 1194.09 0 1120 0 960C0 800 0 800 0 640C0 480 0 480 0 320C0 221.93 -28.14 211.81 0 123.87" stroke="rgba(9, 58, 96, 1)" stroke-width="2"></path>
        <path d="M320 229.86C270.12 229.86 209.66 267.1 209.66 320C209.66 392.17 272.76 480 320 480C362.34 480 388.82 395.75 388.82 320C388.82 270.68 359.7 229.86 320 229.86" stroke="rgba(9, 58, 96, 1)" stroke-width="2"></path>
        <path d="M0 252.9C21.3 252.9 71.72 277.84 71.72 320C71.72 410.44 18.48 518.1 0 518.1C-17.38 518.1 0 419.05 0 320C0 286.45 -14.56 252.9 0 252.9" stroke="rgba(9, 58, 96, 1)" stroke-width="2"></path>
        <path d="M320 117.18C268.52 55.2 209.07 34.72 209.07 0C209.07 -23.87 264.53 0 320 0C480 0 480 0 640 0C653.91 0 656.46 -7.7 667.83 0C816.46 100.68 818.37 103.14 960 216.77C1017.79 263.14 1066.67 262.35 1066.67 320C1066.67 396.01 1040.38 443.91 960 484.1C827.04 550.58 772.32 578.09 640 533.33C529.74 496.04 557.07 426.94 474.84 320C397.07 218.86 401.41 215.2 320 117.18" stroke="rgba(9, 58, 96, 1)" stroke-width="2"></path>
        <path d="M1280 95.44C1235.41 95.44 1187.8 28.16 1187.8 0C1187.8 -19.56 1233.9 0 1280 0C1320.6 0 1361.19 -18.76 1361.19 0C1361.19 28.96 1322.1 95.44 1280 95.44" stroke="rgba(9, 58, 96, 1)" stroke-width="2"></path>
        <path d="M1521.51 320C1535.05 273.34 1564.95 291.27 1600 253.97C1715.31 131.27 1698.16 98.46 1822.22 0C1858.16 -28.53 1908.56 -37.45 1920 0C1957.45 122.55 1920 160 1920 320C1920 480 1920 480 1920 640C1920 800 1920 800 1920 960C1920 1066.66 1952.3 1173.33 1920 1173.33C1881.19 1173.33 1863.49 1052.85 1777.78 960C1703.49 879.52 1673.19 907.49 1600 826.67C1528.3 747.49 1503.84 742.23 1488 640C1464.59 488.9 1479.05 466.36 1521.51 320" stroke="rgba(9, 58, 96, 1)" stroke-width="2"></path>
        <path d="M71.11 960C199.41 823.98 169.43 729.65 320 680C453.87 635.86 492.3 700.99 640 772.41C781.83 840.99 899.05 877.1 899.05 960C899.05 1034.89 777.07 1050.66 640 1088C487.55 1129.53 458.51 1060.44 320 1117.75C226.51 1156.44 264.33 1235.21 176 1280C104.33 1316.34 35.46 1332.54 0 1280C-52.54 1202.17 -26.24 1137.34 0 1019.26C9.32 977.34 39.41 993.61 71.11 960" stroke="rgba(9, 58, 96, 1)" stroke-width="2"></path>
        <path d="M320 4.51C317.27 4.51 315.73 1.34 315.73 0C315.73 -0.92 317.87 0 320 0C327.27 0 334.55 -1.1 334.55 0C334.55 1.15 326.68 4.51 320 4.51" stroke="rgba(9, 58, 96, 1)" stroke-width="2"></path>
        <path d="M560.86 320C560.86 240.67 576.28 152.73 640 152.73C747.28 152.73 902.86 249.28 902.86 320C902.86 384.02 757.25 422.22 640 422.22C586.25 422.22 560.86 375.42 560.86 320" stroke="rgba(9, 58, 96, 1)" stroke-width="2"></path>
        <path d="M1782.86 640C1782.86 616.41 1865.58 603.08 1920 603.08C1934.15 603.08 1920 621.54 1920 640C1920 670 1939.62 700 1920 700C1871.05 700 1782.86 664.87 1782.86 640" stroke="rgba(9, 58, 96, 1)" stroke-width="2"></path>
        <path d="M248.89 960C248.89 925 271.15 886.2 320 880C466.7 861.37 486.22 878.68 640 910.34C680.5 918.68 708.57 938.05 708.57 960C708.57 979.82 677.46 989.54 640 993.88C483.17 1012.07 474.84 1018.48 320 1005.07C279.29 1001.54 248.89 987.53 248.89 960" stroke="rgba(9, 58, 96, 1)" stroke-width="2"></path>
        <path d="M0 1167.41C20.78 1167.41 76 1243.9 76 1280C76 1300.2 15.31 1302.69 0 1280C-22.69 1246.39 -17.22 1167.41 0 1167.41" stroke="rgba(9, 58, 96, 1)" stroke-width="2"></path>
    </g>
    <defs>
        <mask id="SvgjsMask1050">
            <rect width="1920" height="1280" fill="#ffffff"></rect>
        </mask>
    </defs>
</svg> -->

<svg xmlns="http://www.w3.org/2000/svg" version="1.1" xmlns:xlink="http://www.w3.org/1999/xlink" xmlns:svgjs="http://svgjs.dev/svgjs" width="1920" height="2056" preserveAspectRatio="none" viewBox="0 0 1920 2056">
    <g mask="url(&quot;#SvgjsMask1041&quot;)" fill="none">
        <rect width="1920" height="2056" x="0" y="0" fill="#06263E"></rect>
        <path d="M0,711.847C131.107,723.411,228.822,598.684,344.991,536.816C473.684,468.278,637.71,449.273,719.579,328.621C804.89,202.897,830.594,32.223,785.927,-112.999C742.936,-252.774,587.771,-315.917,488.35,-423.158C393.241,-525.748,347.801,-688.02,214.245,-729.65C80.542,-771.326,-51.218,-671.504,-185.968,-633.348C-322.295,-594.745,-484.354,-606.981,-581.893,-504.213C-680.146,-400.693,-696.989,-242.234,-692.578,-99.578C-688.591,29.349,-629.804,147.586,-558.417,255.02C-495.125,350.27,-396.493,406.811,-307.978,479.223C-206.342,562.369,-130.805,700.31,0,711.847" fill="#0C4E82" class="triangle-float1"></path>
        <path d="M1920 2878.253C2084.459 2884.904 2258.2 2886.686 2397.152 2798.4629999999997 2536.39 2710.058 2615.7309999999998 2554.575 2673.253 2399.999 2727.888 2253.181 2718.234 2098.187 2716.033 1941.548 2713.502 1761.489 2754.217 1568.395 2659.4139999999998 1415.2939999999999 2560.077 1254.8719999999998 2384.064 1142.362 2198.849 1106.328 2019.771 1071.488 1832.708 1131.042 1675.675 1223.905 1538.277 1305.1570000000002 1498.231 1480.471 1381.699 1589.56 1244.999 1717.529 988.183 1734.452 937.677 1914.763 888.434 2090.565 1056.089 2251.54 1152.921 2406.313 1238.394 2542.929 1329.769 2676.402 1467.0230000000001 2760.8469999999998 1602.621 2844.272 1760.924 2871.82 1920 2878.253" fill="#0C4E82" class="triangle-float2"></path>
    </g>
    <defs>
        <mask id="SvgjsMask1041">
            <rect width="1920" height="2056" fill="#ffffff"></rect>
        </mask>
                <style>
            @keyframes float1 {
                    0%{transform: translate(0, 0)}
                    50%{transform: translate(-60px, -50px)}
                    100%{transform: translate(0, 0)}
                }

                .triangle-float1 {
                    animation: float1 7s infinite;
                }

                @keyframes float2 {
                    0%{transform: translate(0, 0)}
                    50%{transform: translate(-90px, -30px)}
                    100%{transform: translate(0, 0)}
                }

                .triangle-float2 {
                    animation: float2 6s infinite;
                }
        </style>
    </defs>
</svg>